<svg width="24" height="24" viewBox="0 0 24 24" fill="none" xmlns="http://www.w3.org/2000/svg">
<g clip-path="url(#clip0_80_232)">
<path d="M18.8571 21H5.14286C4.81905 21 4.54743 20.892 4.328 20.676C4.10858 20.46 3.99924 20.193 4 19.875V17.2312C4 16.8562 4.08115 16.5094 4.24343 16.1906C4.40572 15.8719 4.63886 15.6094 4.94286 15.4031C5.91429 14.6906 7.03353 14.1326 8.30057 13.7291C9.56762 13.3256 10.8008 13.1242 12 13.125C13.2 13.125 14.4335 13.3264 15.7006 13.7291C16.9676 14.1319 18.0865 14.6899 19.0571 15.4031C19.3619 15.6094 19.5954 15.8719 19.7577 16.1906C19.92 16.5094 20.0008 16.8562 20 17.2312V19.875C20 20.1937 19.8903 20.4611 19.6709 20.6771C19.4514 20.8931 19.1802 21.0007 18.8571 21ZM12 12C10.7429 12 9.66667 11.5594 8.77143 10.6781C7.87619 9.79687 7.42857 8.7375 7.42857 7.5C7.42857 6.2625 7.87619 5.20312 8.77143 4.32187C9.66667 3.44063 10.7429 3 12 3C13.2571 3 14.3333 3.44063 15.2286 4.32187C16.1238 5.20312 16.5714 6.2625 16.5714 7.5C16.5714 8.7375 16.1238 9.79687 15.2286 10.6781C14.3333 11.5594 13.2571 12 12 12Z" fill="#AEB0B6"/>
</g>
<defs>
<clipPath id="clip0_80_232">
<rect width="24" height="24" fill="white"/>
</clipPath>
</defs>
</svg>
