<svg width="24" height="24" viewBox="0 0 24 24" fill="none" xmlns="http://www.w3.org/2000/svg">
<circle cx="12" cy="12" r="10" fill="#AEB0B6"/>
<path fill-rule="evenodd" clip-rule="evenodd" d="M9.73289 9.95986L6.57603 16.7683C6.3801 17.1909 6.81754 17.6282 7.24006 17.4322L14.1007 14.2494C14.2101 14.1986 14.2975 14.11 14.3467 14L17.3849 7.20684C17.5742 6.78363 17.1355 6.35302 16.7159 6.55016L9.97388 9.71765C9.8676 9.76758 9.78228 9.85333 9.73289 9.95986ZM12 13C12.5523 13 13 12.5523 13 12C13 11.4477 12.5523 11 12 11C11.4477 11 11 11.4477 11 12C11 12.5523 11.4477 13 12 13Z" fill="white"/>
</svg>
