<svg width="137" height="48" viewBox="0 0 137 48" fill="none" xmlns="http://www.w3.org/2000/svg">
<path d="M7.89556 29.1029L0.955566 23.3877L18.7138 1.75122L25.6538 7.46651L22.1838 23.3877L23.0002 38.4923L16.6726 46.2488L11.3655 41.7582L14.4273 20.9382L7.89556 29.1029Z" fill="#3B87F4"/>
<path fill-rule="evenodd" clip-rule="evenodd" d="M34.839 44.6159C42.8429 44.6159 49.3313 38.1274 49.3313 30.1236C49.3313 22.1197 42.8429 15.6312 34.839 15.6312C26.8351 15.6312 20.3467 22.1197 20.3467 30.1236C20.3467 38.1274 26.8351 44.6159 34.839 44.6159ZM35.0431 34.8182C37.7487 34.8182 39.9419 32.625 39.9419 29.9194C39.9419 27.2139 37.7487 25.0206 35.0431 25.0206C32.3376 25.0206 30.1443 27.2139 30.1443 29.9194C30.1443 32.625 32.3376 34.8182 35.0431 34.8182Z" fill="#3B87F4"/>
<path d="M130.244 36.1975V35.997H130.044H127.297C126.516 35.997 126 35.8398 125.701 35.5705C125.437 35.304 125.281 34.84 125.281 34.1255V25.2672H129.996H130.196V25.0667V17.2126V17.0121H129.996H125.281V10.6594V10.459H125.081H115.588H115.388V10.6594V17.0121H112.264H112.063V17.2126V25.0667V25.2672H112.264H115.388V33.981C115.388 37.4335 116.259 40.0596 118.037 41.8209C119.815 43.5819 122.465 44.4448 125.948 44.4448H130.044H130.244V44.2444V36.1975Z" fill="#3B87F4" stroke="#3B87F4" stroke-width="0.400879"/>
<path d="M90.951 43.5605L90.951 43.5606L90.9547 43.5621C92.9103 44.377 95.1215 44.7822 97.585 44.7822C99.8859 44.7822 101.889 44.4258 103.59 43.7063L103.592 43.7055C105.32 42.9555 106.652 41.9396 107.577 40.6525C108.533 39.3652 109.013 37.9101 109.013 36.2939C109.013 34.302 108.506 32.7083 107.47 31.5376C106.487 30.3583 105.32 29.5029 103.971 28.9761C102.672 28.4566 101.038 27.9881 99.0723 27.5691C97.439 27.2168 96.2679 26.8834 95.5481 26.5709C94.8582 26.2401 94.557 25.8015 94.557 25.2596C94.557 24.8052 94.7228 24.4658 95.052 24.2176C95.4228 23.9622 95.9698 23.8217 96.7176 23.8217C97.6819 23.8217 98.4184 24.0547 98.9504 24.498L98.9502 24.4983L98.9598 24.5054C99.5225 24.92 99.8851 25.5301 100.038 26.3561L100.068 26.5201H100.235H108.764H108.988L108.963 26.297C108.637 23.4235 107.442 21.0951 105.377 19.3252C103.306 17.5505 100.476 16.6749 96.9104 16.6749C94.5122 16.6749 92.4428 17.0638 90.7082 17.8492L90.7082 17.8492L90.7069 17.8498C89.0087 18.6336 87.7086 19.6999 86.8175 21.0526C85.9274 22.3717 85.4828 23.8563 85.4828 25.5005C85.4828 27.3968 85.9574 28.9254 86.9281 30.0636L86.9281 30.0636L86.9303 30.0661C87.9144 31.1814 89.0656 31.9882 90.3832 32.4822C91.681 32.9689 93.2975 33.405 95.2302 33.7916C96.93 34.1765 98.1342 34.5264 98.8542 34.8394C99.2009 34.9902 99.4459 35.1759 99.6044 35.3894C99.7612 35.6007 99.842 35.8511 99.842 36.1494C99.842 36.5931 99.653 36.9521 99.2513 37.2391C98.8466 37.5281 98.282 37.6836 97.5368 37.6836C96.5741 37.6836 95.7819 37.4512 95.1477 36.9981C94.5201 36.5499 94.1458 35.9251 94.0248 35.1081L93.9995 34.937H93.8265H84.6714H84.4561L84.4715 35.1518C84.6027 36.9895 85.2271 38.6487 86.3425 40.125L86.3424 40.125L86.3456 40.1289C87.4929 41.5713 89.0304 42.7142 90.951 43.5605Z" fill="#3B87F4" stroke="#3B87F4" stroke-width="0.400879"/>
<path d="M81.0563 17.2126V17.0122H80.8558H71.3634H71.1629V17.2126V31.7163C71.1629 33.2224 70.7716 34.3903 70.0105 35.2435C69.2519 36.062 68.2172 36.479 66.8822 36.479C65.5817 36.479 64.5449 36.0635 63.7526 35.2421C62.9923 34.3889 62.6014 33.2215 62.6014 31.7163V17.2126V17.0122H62.401H53.0049H52.8044V17.2126V32.921C52.8044 36.5203 53.7129 39.3983 55.5514 41.5324L55.5514 41.5324L55.5536 41.5348C57.4283 43.6398 59.9757 44.6858 63.1719 44.6858C65.0305 44.6858 66.6854 44.3106 68.1315 43.5547L68.1315 43.5548L68.1346 43.5531C69.3703 42.8791 70.3809 42.0338 71.1629 41.0166V44.2444V44.4449H71.3634H80.8558H81.0563V44.2444V17.2126Z" fill="#3B87F4" stroke="#3B87F4" stroke-width="0.400879"/>
</svg>
