<svg width="116" height="190" viewBox="0 0 116 190" fill="none" xmlns="http://www.w3.org/2000/svg">
<ellipse cx="52.5" cy="178.5" rx="52.5" ry="11.5" fill="#AFA29B"/>
<circle cx="57.8945" cy="98.5847" r="57.8945" fill="#3B87F4"/>
<rect x="42.1343" y="-0.248779" width="16.5" height="41.5" rx="2" transform="rotate(30 42.1343 -0.248779)" fill="#3B87F4"/>
<rect x="39.9429" y="7.64746" width="15.68" height="50.7726" rx="2" transform="rotate(-2.58229 39.9429 7.64746)" fill="#3B87F4"/>
<rect x="65.2544" y="21.7512" width="16.5" height="41.5" rx="2" transform="rotate(30 65.2544 21.7512)" fill="#3B87F4"/>
<path d="M31.721 85.2017C30.6165 85.2017 29.7087 86.1003 29.8403 87.197C30.285 90.9036 31.9594 94.377 34.6262 97.0437C37.7669 100.184 42.0266 101.949 46.4682 101.949C50.9098 101.949 55.1695 100.184 58.3102 97.0437C60.9769 94.377 62.6514 90.9036 63.0961 87.1971C63.2277 86.1004 62.3199 85.2017 61.2153 85.2017L46.4682 85.2017L31.721 85.2017Z" fill="white"/>
<path d="M38.8024 85.2017C38.8023 88.0325 39.9269 90.7474 41.9286 92.749C43.9302 94.7507 46.6451 95.8752 49.4759 95.8752C52.3067 95.8752 55.0215 94.7507 57.0232 92.749C59.0249 90.7474 60.1494 88.0325 60.1494 85.2017L49.4759 85.2017L38.8024 85.2017Z" fill="black"/>
<path d="M63.1156 85.2017C62.011 85.2017 61.1032 86.1003 61.2348 87.197C61.6795 90.9036 63.354 94.377 66.0207 97.0437C69.1614 100.184 73.4211 101.949 77.8627 101.949C82.3043 101.949 86.564 100.184 89.7047 97.0437C92.3714 94.377 94.0459 90.9036 94.4906 87.1971C94.6222 86.1004 93.7144 85.2017 92.6099 85.2017L77.8627 85.2017L63.1156 85.2017Z" fill="white"/>
<path d="M70.3258 85.2017C70.3258 88.0325 71.4503 90.7474 73.452 92.749C75.4537 94.7507 78.1685 95.8752 80.9993 95.8752C83.8301 95.8752 86.545 94.7507 88.5466 92.749C90.5483 90.7474 91.6729 88.0325 91.6729 85.2017L80.9993 85.2017L70.3258 85.2017Z" fill="black"/>
<path d="M80.8931 119.55L78.6036 120.554L80.8931 119.55C79.7841 117.021 76.835 115.87 74.3061 116.979L75.3101 119.269L74.306 116.979C52.0068 126.758 39.5085 116.953 36.3889 112.356C34.8384 110.071 31.7291 109.475 29.444 111.026C27.159 112.576 26.5636 115.686 28.1141 117.971C33.9605 126.587 51.6395 137.838 78.3221 126.137C80.851 125.028 82.0021 122.079 80.8931 119.55Z" fill="black" stroke="#6CA6F7" stroke-width="5" stroke-linecap="round"/>
<path fill-rule="evenodd" clip-rule="evenodd" d="M80.4175 143.715H59.6479V176.249C59.6479 176.594 59.8228 176.898 60.0888 177.078C60.2484 177.186 60.4408 177.249 60.6479 177.249H80.4175L91.1816 177.249C92.2862 177.249 93.1816 176.353 93.1816 175.249V173.415C93.1816 167.339 88.2568 162.415 82.1816 162.415H80.4175V143.715Z" fill="#3B87F4"/>
<path fill-rule="evenodd" clip-rule="evenodd" d="M35.3715 143.715H56.1411V176.249C56.1411 176.594 55.9662 176.898 55.7002 177.078C55.5406 177.186 55.3482 177.249 55.1411 177.249H35.3715L24.6074 177.249C23.5029 177.249 22.6074 176.353 22.6074 175.249V173.415C22.6074 167.339 27.5323 162.415 33.6074 162.415H35.3715V143.715Z" fill="#3B87F4"/>
</svg>
