<svg width="32" height="32" viewBox="0 0 32 32" fill="none" xmlns="http://www.w3.org/2000/svg">
<path fill-rule="evenodd" clip-rule="evenodd" d="M1.33337 5.99998C1.33337 5.63179 1.63185 5.33331 2.00004 5.33331H30C30.3682 5.33331 30.6667 5.63179 30.6667 5.99998V12.6666C30.6667 13.0348 30.3636 13.3248 30.0068 13.4156C28.8532 13.7093 28 14.755 28 16C28 17.245 28.8532 18.2907 30.0068 18.5844C30.3636 18.6752 30.6667 18.9651 30.6667 19.3333V26C30.6667 26.3682 30.3682 26.6666 30 26.6666H2.00004C1.63185 26.6666 1.33337 26.3682 1.33337 26V19.3333C1.33337 18.9651 1.63649 18.6752 1.99329 18.5844C3.14687 18.2907 4.00004 17.245 4.00004 16C4.00004 14.755 3.14687 13.7093 1.9933 13.4156C1.63649 13.3248 1.33337 13.0348 1.33337 12.6666V5.99998Z" fill="#88D4B0"/>
<path d="M15.4104 9.11756C15.6605 8.64346 16.3395 8.64346 16.5896 9.11756L18.2922 12.3446C18.3887 12.5274 18.5645 12.6551 18.7682 12.6904L22.3634 13.3124C22.8916 13.4038 23.1014 14.0496 22.7278 14.434L20.1849 17.0504C20.0408 17.1987 19.9736 17.4054 20.0031 17.61L20.5224 21.2214C20.5987 21.752 20.0494 22.1511 19.5684 21.9146L16.2942 20.3046C16.1087 20.2134 15.8913 20.2134 15.7058 20.3046L12.4316 21.9146C11.9506 22.1511 11.4013 21.752 11.4776 21.2214L11.9969 17.61C12.0264 17.4054 11.9592 17.1987 11.8151 17.0504L9.2722 14.434C8.89861 14.0496 9.10843 13.4038 9.63662 13.3124L13.2318 12.6904C13.4355 12.6551 13.6113 12.5274 13.7078 12.3446L15.4104 9.11756Z" fill="#3B87F4"/>
</svg>
