<svg width="143" height="147" viewBox="0 0 143 147" fill="none" xmlns="http://www.w3.org/2000/svg">
<ellipse cx="71.5" cy="73.5" rx="71.5" ry="73.5" fill="#D9D9D9" fill-opacity="0.7"/>
<path d="M72.6279 74.7158H69.3613C69.3711 73.8076 69.4492 73.0459 69.5957 72.4307C69.7422 71.8057 69.9863 71.2393 70.3281 70.7314C70.6797 70.2236 71.1436 69.6865 71.7197 69.1201C72.1689 68.6904 72.5742 68.2852 72.9355 67.9043C73.2969 67.5137 73.585 67.1035 73.7998 66.6738C74.0146 66.2344 74.1221 65.7314 74.1221 65.165C74.1221 64.5498 74.0195 64.0273 73.8145 63.5977C73.6094 63.168 73.3066 62.8408 72.9062 62.6162C72.5156 62.3916 72.0273 62.2793 71.4414 62.2793C70.9531 62.2793 70.4941 62.377 70.0645 62.5723C69.6348 62.7578 69.2881 63.0508 69.0244 63.4512C68.7607 63.8418 68.6191 64.3594 68.5996 65.0039H65.0693C65.0889 63.7734 65.3818 62.7383 65.9482 61.8984C66.5146 61.0586 67.2764 60.4287 68.2334 60.0088C69.1904 59.5889 70.2598 59.3789 71.4414 59.3789C72.75 59.3789 73.8682 59.6035 74.7959 60.0527C75.7236 60.4922 76.4316 61.1367 76.9199 61.9863C77.418 62.8262 77.667 63.8418 77.667 65.0332C77.667 65.8926 77.4961 66.6738 77.1543 67.377C76.8125 68.0703 76.3682 68.7197 75.8213 69.3252C75.2744 69.9209 74.6836 70.5166 74.0488 71.1123C73.502 71.6104 73.1309 72.1523 72.9355 72.7383C72.7402 73.3145 72.6377 73.9736 72.6279 74.7158ZM69.0684 79.2861C69.0684 78.7588 69.249 78.3145 69.6104 77.9531C69.9717 77.582 70.4648 77.3965 71.0898 77.3965C71.7148 77.3965 72.208 77.582 72.5693 77.9531C72.9307 78.3145 73.1113 78.7588 73.1113 79.2861C73.1113 79.8135 72.9307 80.2627 72.5693 80.6338C72.208 80.9951 71.7148 81.1758 71.0898 81.1758C70.4648 81.1758 69.9717 80.9951 69.6104 80.6338C69.249 80.2627 69.0684 79.8135 69.0684 79.2861Z" fill="black"/>
</svg>
