<svg width="48" height="48" viewBox="0 0 48 48" fill="none" xmlns="http://www.w3.org/2000/svg">
<path fill-rule="evenodd" clip-rule="evenodd" d="M31.9705 24C31.9705 24.2429 32.0589 24.4775 32.2192 24.66L33.5692 26.1C33.7103 26.2573 33.7979 26.4553 33.8194 26.6655C33.841 26.8757 33.7954 27.0873 33.6892 27.27L31.6892 30.73C31.5841 30.9125 31.4241 31.0571 31.232 31.1433C31.0398 31.2295 30.8254 31.2529 30.6192 31.21L28.7392 30.83C28.5 30.7806 28.251 30.8204 28.0391 30.942C27.8273 31.0636 27.6672 31.2585 27.5892 31.49L26.9792 33.32C26.9121 33.5186 26.7843 33.6912 26.6139 33.8132C26.4434 33.9352 26.2389 34.0006 26.0292 34H22.0292C21.8112 34.0114 21.5954 33.9511 21.4148 33.8283C21.2342 33.7055 21.0988 33.527 21.0292 33.32L20.4192 31.49C20.3412 31.2585 20.1812 31.0636 19.9693 30.942C19.7575 30.8204 19.5084 30.7806 19.2692 30.83L17.3892 31.21C17.1831 31.2529 16.9686 31.2295 16.7765 31.1433C16.5844 31.0571 16.4243 30.9125 16.3192 30.73L14.3192 27.27C14.2104 27.0894 14.1615 26.8789 14.1794 26.6688C14.1974 26.4587 14.2813 26.2596 14.4192 26.1L15.6892 24.66C15.8496 24.4775 15.938 24.2429 15.938 24C15.938 23.7571 15.8496 23.5225 15.6892 23.34L14.4192 21.9C14.2813 21.7405 14.1974 21.5414 14.1794 21.3312C14.1615 21.1211 14.2104 20.9107 14.3192 20.73L16.3192 17.27C16.4199 17.1002 16.5686 16.9641 16.7466 16.8787C16.9245 16.7932 17.1238 16.7624 17.3192 16.79L19.2492 17.17C19.4884 17.2194 19.7375 17.1796 19.9493 17.058C20.1612 16.9364 20.3212 16.7415 20.3992 16.51L20.9592 14.68C21.0288 14.473 21.1642 14.2945 21.3448 14.1717C21.5254 14.0489 21.7412 13.9886 21.9592 14H25.9592C26.1689 13.9995 26.3734 14.0648 26.5439 14.1869C26.7143 14.3089 26.8421 14.4814 26.9092 14.68L27.5192 16.51C27.5972 16.7415 27.7573 16.9364 27.9691 17.058C28.181 17.1796 28.43 17.2194 28.6692 17.17L30.5492 16.79C30.7554 16.7472 30.9698 16.7705 31.162 16.8567C31.3541 16.9429 31.5141 17.0875 31.6192 17.27L33.6192 20.73C33.7254 20.9127 33.771 21.1243 33.7494 21.3345C33.7279 21.5447 33.6403 21.7427 33.4992 21.9L32.2192 23.34C32.0589 23.5225 31.9705 23.7571 31.9705 24Z" fill="#5A5C63"/>
<circle cx="24.0005" cy="24" r="2.20947" fill="#E6F1FF"/>
</svg>
